<?xml version="1.0" standalone="no"?>
<!DOCTYPE svg PUBLIC "-//W3C//DTD SVG 20010904//EN"
 "http://www.w3.org/TR/2001/REC-SVG-20010904/DTD/svg10.dtd">
<svg version="1.0" xmlns="http://www.w3.org/2000/svg"
 width="261.000000pt" height="261.000000pt" viewBox="0 0 261.000000 261.000000"
 preserveAspectRatio="xMidYMid meet">
<metadata>
Created by potrace 1.11, written by Peter Selinger 2001-2013
</metadata>
<g transform="translate(0.000000,261.000000) scale(0.100000,-0.100000)"
fill="#000000" stroke="none">
<path d="M1775 2017 c-6 -7 -71 -100 -145 -207 -73 -107 -147 -213 -164 -235
-17 -22 -31 -41 -32 -43 -1 -1 -23 -5 -50 -8 -142 -16 -287 -65 -356 -122
l-38 -30 -472 0 c-557 0 -508 1 -508 -15 0 -10 91 -13 468 -12 257 0 472 -1
478 -3 6 -1 8 -16 6 -33 -2 -17 1 -41 8 -54 17 -32 86 -63 155 -71 30 -4 55
-11 55 -15 0 -5 -59 -93 -132 -196 -214 -305 -268 -386 -261 -396 8 -14 28 13
195 253 78 113 165 237 193 276 51 69 53 70 101 73 150 7 294 57 395 138 l36
28 442 0 c344 0 445 3 453 12 13 16 66 14 -451 16 l-434 2 -2 35 c-5 64 -58
94 -203 114 -19 2 -35 6 -37 8 -2 2 46 73 106 158 170 240 219 314 219 327 0
16 -12 16 -25 0z m-377 -539 c-3 -7 -38 -20 -79 -29 -85 -18 -120 -32 -159
-59 -30 -21 -70 -27 -70 -10 0 27 136 85 232 99 35 4 67 9 71 10 5 0 7 -5 5
-11z m168 -9 c38 -12 61 -36 66 -68 2 -20 -2 -25 -25 -28 -21 -3 -29 1 -36 21
-14 34 -48 55 -103 62 -40 6 -46 9 -36 21 12 15 74 12 134 -8z m-458 -147 c5
-30 45 -59 93 -67 33 -6 38 -9 28 -21 -15 -18 -56 -18 -110 1 -56 20 -79 42
-79 76 0 41 62 51 68 11z m484 5 c-44 -49 -157 -92 -269 -103 -54 -6 -62 -4
-58 8 4 10 26 18 61 22 69 8 150 36 197 68 20 13 47 24 61 24 24 0 25 -1 8
-19z"/>
<path d="M1524 1814 c-41 -42 -49 -46 -102 -50 -75 -6 -182 -22 -291 -45 -48
-10 -58 -9 -110 15 -31 14 -65 23 -76 21 -11 -2 -24 -4 -29 -4 -14 -1 34 -50
74 -74 19 -11 61 -40 92 -64 76 -58 115 -73 188 -73 108 0 163 37 252 170 28
41 58 84 68 95 31 36 32 55 4 55 -16 0 -40 -15 -70 -46z m-112 -111 c-36 -50
-78 -83 -110 -87 -38 -5 -163 52 -141 64 13 7 76 19 209 39 30 5 56 9 58 10 2
0 -6 -11 -16 -26z"/>
<path d="M1656 1733 c-48 -70 -86 -136 -86 -145 0 -26 38 -42 106 -44 83 -3
117 5 348 92 238 88 276 104 276 116 0 15 -42 8 -130 -22 l-87 -30 -55 19
c-30 10 -74 22 -99 26 -24 4 -51 9 -59 10 -8 1 -34 6 -58 10 -35 6 -42 10 -36
23 15 36 10 67 -13 70 -18 3 -36 -18 -107 -125z m260 -38 c31 -8 59 -16 60
-18 2 -2 -36 -15 -84 -29 -173 -52 -196 -48 -163 27 l21 48 55 -7 c30 -3 80
-13 111 -21z"/>
<path d="M735 1690 c-4 -7 2 -25 14 -41 11 -15 21 -32 21 -36 0 -4 -36 -25
-79 -45 -44 -21 -108 -57 -143 -81 -82 -56 -81 -56 -191 -58 -56 -1 -103 -7
-118 -15 -13 -7 -22 -14 -19 -14 3 -1 14 -3 25 -6 47 -10 622 -5 669 5 63 15
102 36 122 66 22 33 12 46 -120 145 -107 81 -165 106 -181 80z m107 -147 c14
-16 30 -37 36 -49 19 -36 -2 -41 -222 -48 l-70 -3 30 24 c32 26 173 102 190
103 5 0 22 -12 36 -27z"/>
<path d="M2255 1666 c-44 -18 -157 -61 -252 -96 -95 -34 -181 -71 -193 -82
-11 -10 -20 -30 -20 -44 0 -37 49 -54 162 -55 226 -3 555 3 567 10 22 14 -39
30 -124 33 l-80 3 -7 48 c-4 28 -17 62 -32 82 -14 18 -26 38 -26 43 0 5 21 17
48 27 55 21 92 44 92 56 0 18 -57 7 -135 -25z m-63 -126 c10 -14 21 -42 25
-63 l6 -38 -124 6 c-129 7 -154 15 -129 40 19 18 171 84 189 82 8 -1 22 -13
33 -27z"/>
<path d="M626 1333 c-1 -2 -106 -3 -232 -4 -231 -1 -264 -3 -264 -19 0 -14 58
-27 130 -29 35 -1 65 -3 66 -4 2 -1 -4 -26 -11 -54 -13 -50 -13 -62 0 -124 5
-23 1 -27 -77 -59 -126 -51 -183 -90 -130 -90 14 0 515 179 587 210 11 5 38
14 60 21 60 18 93 37 111 64 18 27 12 59 -14 71 -16 7 -221 22 -226 17z m-23
-67 c84 -5 92 -8 84 -28 -6 -16 -255 -120 -268 -112 -12 7 -12 96 0 127 9 22
14 24 58 21 26 -2 83 -6 126 -8z"/>
<path d="M1870 1329 c-68 -6 -153 -30 -182 -53 -10 -7 -21 -24 -27 -37 -11
-29 -1 -44 49 -79 19 -13 90 -64 158 -113 89 -64 132 -90 155 -91 48 -2 49 33
3 71 -20 15 -36 33 -36 40 0 6 21 23 48 38 61 36 128 89 173 139 l35 40 100 2
c108 3 176 20 139 34 -12 4 -126 8 -255 9 -129 1 -248 3 -265 4 -16 1 -59 -1
-95 -4z m258 -67 c-38 -48 -183 -146 -200 -136 -31 18 -98 90 -98 105 0 25 24
31 145 38 61 3 123 7 138 8 26 2 28 1 15 -15z"/>
<path d="M875 1155 c-75 -18 -688 -245 -705 -261 -28 -27 66 -16 174 20 l103
35 74 -29 c72 -28 165 -53 242 -65 41 -7 44 -11 23 -40 -7 -11 -18 -37 -24
-58 -9 -32 -8 -38 7 -47 29 -15 53 10 168 170 135 187 156 225 140 251 -6 10
-18 21 -27 25 -29 12 -126 11 -175 -1z m18 -81 c19 -7 9 -47 -28 -110 -20 -34
-32 -44 -51 -44 -34 0 -181 38 -213 55 -24 12 -21 14 79 45 58 18 123 38 145
46 47 15 49 16 68 8z"/>
<path d="M1366 1158 c-21 -5 -61 -21 -89 -35 -45 -25 -62 -46 -175 -216 -70
-106 -121 -192 -116 -197 5 -5 21 -6 37 -3 25 5 53 29 124 110 24 27 37 33 88
38 61 5 124 14 160 21 11 3 43 9 70 15 28 5 82 18 122 29 l71 21 64 -36 c62
-34 99 -42 132 -29 26 10 4 35 -86 99 -46 32 -112 81 -146 108 -35 27 -79 55
-97 63 -42 17 -109 22 -159 12z m112 -112 c26 -14 60 -34 75 -44 l28 -19 -58
-16 c-80 -21 -149 -35 -208 -42 -27 -3 -59 -8 -69 -12 -13 -4 -5 12 28 55 83
109 118 122 204 78z"/>
</g>
</svg>
