<?xml version="1.0" encoding="UTF-8"?>
<svg xmlns="http://www.w3.org/2000/svg" xmlns:xlink="http://www.w3.org/1999/xlink" width="51pt" height="50pt" viewBox="0 0 51 50" version="1.1">
<g id="surface1">
<path style=" stroke:none;fill-rule:nonzero;fill:#ccc;fill-opacity:1;" d="M 16.019531 0 C 12.535156 2.628906 5.628906 8.636719 2.140625 18.78125 C 1.121094 21.726562 -1.308594 29.089844 0.90625 37.667969 C 1.710938 40.78125 3.378906 47.21875 8.519531 49.277344 C 9.132812 49.523438 12.4375 50.84375 15.796875 49.164062 C 16.394531 48.867188 18.566406 47.703125 19.601562 45.292969 C 20.996094 42.03125 19.785156 37.71875 16.460938 34.710938 C 15.199219 32.996094 13.085938 29.636719 12.4375 24.921875 C 11.660156 19.335938 13.375 15.050781 14.230469 12.976562 C 15.613281 9.652344 17.671875 6.667969 20.269531 4.214844 Z M 16.019531 0 "/>
<path style=" stroke:none;fill-rule:nonzero;fill:#ccc;fill-opacity:1;" d="M 46.746094 0 C 43.257812 2.628906 36.355469 8.636719 32.867188 18.78125 C 31.847656 21.726562 29.414062 29.089844 31.628906 37.667969 C 32.433594 40.78125 34.105469 47.21875 39.246094 49.277344 C 39.859375 49.523438 43.164062 50.84375 46.523438 49.164062 C 47.117188 48.867188 49.289062 47.703125 50.328125 45.292969 C 51.722656 42.03125 50.511719 37.71875 47.1875 34.710938 C 45.925781 32.996094 43.8125 29.636719 43.164062 24.921875 C 42.386719 19.335938 44.097656 15.050781 44.957031 12.976562 C 46.335938 9.652344 48.394531 6.667969 50.996094 4.214844 Z M 46.746094 0 "/>
</g>
</svg>
